<svg width="41" height="40" viewBox="0 0 41 40" fill="none"
  xmlns="http://www.w3.org/2000/svg">
  <g clip-path="url(#clip0_1_4)">
    <rect x="0.833328" width="40" height="40" rx="11.6667" fill="white"/>
    <rect x="0.833328" width="40" height="40" rx="11.6667" fill="url(#paint0_linear_1_4)" fill-opacity="0.2"/>
    <line x1="0.833328" y1="7.91667" x2="40.8333" y2="7.91667" stroke="black" stroke-opacity="0.08" stroke-width="0.833333"/>
    <line x1="0.833328" y1="16.25" x2="40.8333" y2="16.25" stroke="black" stroke-opacity="0.08" stroke-width="0.833333"/>
    <line x1="0.833328" y1="24.5833" x2="40.8333" y2="24.5833" stroke="black" stroke-opacity="0.08" stroke-width="0.833333"/>
    <line x1="0.833328" y1="32.9167" x2="40.8333" y2="32.9167" stroke="black" stroke-opacity="0.08" stroke-width="0.833333"/>
    <line x1="8.74999" y1="40.8333" x2="8.74999" y2="0.833344" stroke="black" stroke-opacity="0.08" stroke-width="0.833333"/>
    <line x1="17.0833" y1="40.8333" x2="17.0833" y2="0.833328" stroke="black" stroke-opacity="0.08" stroke-width="0.833333"/>
    <line x1="25.4167" y1="40.8333" x2="25.4167" y2="0.833328" stroke="black" stroke-opacity="0.08" stroke-width="0.833333"/>
    <line x1="32.0833" y1="40.8333" x2="32.0833" y2="0.833328" stroke="black" stroke-opacity="0.08" stroke-width="0.833333"/>
    <circle cx="20.8333" cy="20" r="10" fill="black"/>
    <circle cx="20.8333" cy="20" r="10" fill="url(#paint1_linear_1_4)" fill-opacity="0.3"/>
    <path d="M37.0833 20C37.0833 28.9746 29.808 36.25 20.8333 36.25C11.8587 36.25 4.58333 28.9746 4.58333 20C4.58333 11.0254 11.8587 3.74999 20.8333 3.74999C29.808 3.74999 37.0833 11.0254 37.0833 20Z" stroke="black" stroke-opacity="0.08" stroke-width="0.833333"/>
    <g filter="url(#filter0_b_1_4)">
      <path d="M0.833328 20H40.8333V28.33C40.8333 34.7752 35.6085 40 29.1633 40H12.5033C6.05817 40 0.833328 34.7752 0.833328 28.33V20Z" fill="white" fill-opacity="0.14"/>
    </g>
  </g>
  <rect x="1.24999" y="0.416667" width="39.1667" height="39.1667" rx="11.25" stroke="black" stroke-opacity="0.08" stroke-width="0.833333"/>
  <defs>
    <filter id="filter0_b_1_4" x="-5.1856e-06" y="19.1667" width="41.6667" height="21.6667" filterUnits="userSpaceOnUse" color-interpolation-filters="sRGB">
      <feFlood flood-opacity="0" result="BackgroundImageFix"/>
      <feGaussianBlur in="BackgroundImageFix" stdDeviation="0.416667"/>
      <feComposite in2="SourceAlpha" operator="in" result="effect1_backgroundBlur_1_4"/>
      <feBlend mode="normal" in="SourceGraphic" in2="effect1_backgroundBlur_1_4" result="shape"/>
    </filter>
    <linearGradient id="paint0_linear_1_4" x1="20.8333" y1="0" x2="20.8333" y2="40" gradientUnits="userSpaceOnUse">
      <stop stop-opacity="0"/>
      <stop offset="1"/>
    </linearGradient>
    <linearGradient id="paint1_linear_1_4" x1="20.8333" y1="10" x2="20.8333" y2="30" gradientUnits="userSpaceOnUse">
      <stop stop-color="white"/>
      <stop offset="0.635487" stop-color="white" stop-opacity="0"/>
    </linearGradient>
    <clipPath id="clip0_1_4">
      <rect x="0.833328" width="40" height="40" rx="11.6667" fill="white"/>
    </clipPath>
  </defs>
</svg>
