<svg width="36" height="36" viewBox="0 0 36 36" fill="none" xmlns="http://www.w3.org/2000/svg">
<g clip-path="url(#clip0_103_19)">
<path d="M26.3727 8H22.5771V11.7956H26.3727V8Z" fill="black"/>
<path d="M28.2705 8H24.4749V11.7956H28.2705V8Z" fill="#F7D046"/>
<path d="M11.1904 8H7.39484V11.7956H11.1904V8Z" fill="black"/>
<path d="M11.1904 11.7956H7.39484V15.5911H11.1904V11.7956Z" fill="black"/>
<path d="M11.1904 15.5911H7.39484V19.3867H11.1904V15.5911Z" fill="black"/>
<path d="M11.1904 19.3867H7.39484V23.1822H11.1904V19.3867Z" fill="black"/>
<path d="M11.1904 23.1822H7.39484V26.9778H11.1904V23.1822Z" fill="black"/>
<path d="M13.0882 8H9.2926V11.7956H13.0882V8Z" fill="#F7D046"/>
<path d="M28.2705 11.7956H24.4749V15.5911H28.2705V11.7956Z" fill="#F2A73B"/>
<path d="M13.0882 11.7956H9.2926V15.5911H13.0882V11.7956Z" fill="#F2A73B"/>
<path d="M22.577 11.7956H18.7815V15.5911H22.577V11.7956Z" fill="black"/>
<path d="M24.4749 11.7956H20.6793V15.5911H24.4749V11.7956Z" fill="#F2A73B"/>
<path d="M16.8837 11.7956H13.0881V15.5911H16.8837V11.7956Z" fill="#F2A73B"/>
<path d="M20.6793 15.5911H16.8837V19.3867H20.6793V15.5911Z" fill="#EE792F"/>
<path d="M24.4749 15.5911H20.6793V19.3867H24.4749V15.5911Z" fill="#EE792F"/>
<path d="M16.8837 15.5911H13.0881V19.3867H16.8837V15.5911Z" fill="#EE792F"/>
<path d="M18.7815 19.3867H14.9859V23.1822H18.7815V19.3867Z" fill="black"/>
<path d="M20.6793 19.3867H16.8837V23.1822H20.6793V19.3867Z" fill="#EB5829"/>
<path d="M28.2705 15.5911H24.4749V19.3867H28.2705V15.5911Z" fill="#EE792F"/>
<path d="M13.0882 15.5911H9.2926V19.3867H13.0882V15.5911Z" fill="#EE792F"/>
<path d="M26.3727 19.3867H22.5771V23.1822H26.3727V19.3867Z" fill="black"/>
<path d="M28.2705 19.3867H24.4749V23.1822H28.2705V19.3867Z" fill="#EB5829"/>
<path d="M26.3727 23.1822H22.5771V26.9778H26.3727V23.1822Z" fill="black"/>
<path d="M13.0882 19.3867H9.2926V23.1822H13.0882V19.3867Z" fill="#EB5829"/>
<path d="M28.2705 23.1822H24.4749V26.9778H28.2705V23.1822Z" fill="#EA3326"/>
<path d="M13.0882 23.1822H9.2926V26.9778H13.0882V23.1822Z" fill="#EA3326"/>
</g>
<defs>
<clipPath id="clip0_103_19">
<rect width="20.8755" height="19" fill="white" transform="translate(7.39484 8)"/>
</clipPath>
</defs>
</svg>
