<svg width="36" height="36" viewBox="0 0 36 36" fill="none" xmlns="http://www.w3.org/2000/svg">
<path d="M27.5478 15.9753C28.0542 14.4556 27.8798 12.7908 27.0701 11.4084C25.8523 9.28818 23.4043 8.19736 21.0134 8.71069C19.9498 7.51246 18.4217 6.83106 16.8197 6.84082C14.3758 6.83524 12.2074 8.40869 11.4556 10.734C9.88559 11.0555 8.53045 12.0382 7.73744 13.431C6.51063 15.5457 6.7903 18.2114 8.42932 20.0247C7.92297 21.5445 8.09733 23.2093 8.90707 24.5917C10.1248 26.7119 12.5729 27.8027 14.9637 27.2894C16.0267 28.4876 17.5555 29.169 19.1575 29.1586C21.6028 29.1648 23.7718 27.59 24.5237 25.2626C26.0937 24.9411 27.4488 23.9584 28.2418 22.5656C29.4672 20.4509 29.1869 17.7873 27.5485 15.9739L27.5478 15.9753ZM19.1589 27.7002C18.1804 27.7016 17.2325 27.3591 16.4814 26.7321C16.5156 26.714 16.5748 26.6812 16.6132 26.6575L21.0574 24.0909C21.2847 23.9619 21.4242 23.7198 21.4228 23.4583V17.1931L23.3011 18.2776C23.3213 18.2874 23.3345 18.3069 23.3373 18.3292V23.5176C23.3345 25.8247 21.4661 27.6953 19.1589 27.7002ZM10.1729 23.8621C9.68264 23.0154 9.50618 22.0229 9.67427 21.0598C9.70705 21.0793 9.76493 21.1149 9.80608 21.1386L14.2502 23.7052C14.4755 23.837 14.7545 23.837 14.9805 23.7052L20.4059 20.5722V22.7413C20.4073 22.7636 20.3969 22.7853 20.3794 22.7992L15.8872 25.393C13.8862 26.5452 11.3307 25.8603 10.1736 23.8621H10.1729ZM9.00332 14.1613C9.49153 13.3132 10.2622 12.6645 11.1801 12.3277C11.1801 12.366 11.178 12.4337 11.178 12.4811V17.615C11.1766 17.8759 11.3161 18.1179 11.5427 18.2469L16.9682 21.3792L15.09 22.4637C15.0711 22.4763 15.0474 22.4784 15.0265 22.4693L10.5335 19.8734C8.53672 18.717 7.85183 16.1623 9.00262 14.162L9.00332 14.1613ZM24.4351 17.7524L19.0097 14.6195L20.8879 13.5357C20.9067 13.5231 20.9304 13.521 20.9514 13.5301L25.4443 16.1239C27.4446 17.2796 28.1302 19.8385 26.9745 21.8388C26.4856 22.6855 25.7156 23.3341 24.7985 23.6717V18.3843C24.8006 18.1235 24.6618 17.8822 24.4358 17.7524H24.4351ZM26.3043 14.9389C26.2715 14.9187 26.2136 14.8838 26.1725 14.8601L21.7283 12.2935C21.503 12.1617 21.2241 12.1617 20.9981 12.2935L15.5726 15.4264V13.2574C15.5712 13.2351 15.5817 13.2134 15.5991 13.1995L20.0914 10.6078C22.0924 9.45347 24.6506 10.1405 25.8042 12.1421C26.2917 12.9875 26.4682 13.9771 26.3029 14.9389H26.3043ZM14.5515 18.8049L12.6726 17.7204C12.6524 17.7106 12.6391 17.6911 12.6363 17.6687V12.4804C12.6377 10.1705 14.5118 8.29849 16.8217 8.29989C17.7989 8.29989 18.7446 8.64303 19.4958 9.26795C19.4616 9.28608 19.403 9.31886 19.364 9.34258L14.9198 11.9092C14.6924 12.0382 14.5529 12.2795 14.5543 12.5411L14.5515 18.8035V18.8049ZM15.5719 16.6051L17.9886 15.2095L20.4053 16.6044V19.3949L17.9886 20.7898L15.5719 19.3949V16.6051Z" fill="black"/>
</svg>
