<svg width="109" height="28" viewBox="0 0 109 28" fill="none" xmlns="http://www.w3.org/2000/svg">
<g clip-path="url(#clip0_1_123)">
<path d="M42.0889 21.6464H46.1287L41.2767 12.8172L46.087 7.06984H41.6724L38.1948 11.9426L36.6539 15.0453V7.06984H33.3637V21.6464H36.6539V18.3563L39.0486 15.5034L42.0889 21.6464Z" fill="#1A1E23"/>
<path d="M52.1615 11.0263C49.0796 11.0263 46.4975 13.0879 46.4975 16.4613C46.4975 19.8139 49.0796 21.8547 52.1615 21.8547C55.2434 21.8547 57.8256 19.8139 57.8256 16.4613C57.8256 13.0879 55.2434 11.0263 52.1615 11.0263ZM52.1615 18.981C50.454 18.981 49.6627 18.1689 49.6627 16.4613C49.6627 14.7121 50.454 13.9 52.1615 13.9C53.8691 13.9 54.6604 14.7121 54.6604 16.4613C54.6604 18.1689 53.8691 18.981 52.1615 18.981Z" fill="#1A1E23"/>
<path d="M64.8306 11.0263C61.7487 11.0263 59.1666 13.0879 59.1666 16.4613C59.1666 19.8139 61.7487 21.8547 64.8306 21.8547C67.9125 21.8547 70.4947 19.8139 70.4947 16.4613C70.4947 13.0879 67.9125 11.0263 64.8306 11.0263ZM64.8306 18.981C63.1231 18.981 62.3318 18.1689 62.3318 16.4613C62.3318 14.7121 63.1231 13.9 64.8306 13.9C66.5382 13.9 67.3295 14.7121 67.3295 16.4613C67.3295 18.1689 66.5382 18.981 64.8306 18.981Z" fill="#1A1E23"/>
<path d="M79.8945 7.06984V13.6501C79.2906 11.9426 78.0203 11.0263 76.2503 11.0263C73.3975 11.0263 71.8357 13.192 71.8357 16.4613C71.8357 19.689 73.4808 21.8547 76.4586 21.8547C78.1245 21.8547 79.3114 20.9592 79.8945 19.3142V21.6464H83.0597V7.06984H79.8945ZM77.4581 18.981C75.7922 18.981 75.0009 18.1689 75.0009 16.4613C75.0009 14.7121 75.7922 13.9 77.4581 13.9C79.1865 13.9 79.9986 14.7121 79.9986 16.4613C79.9986 18.1689 79.1865 18.981 77.4581 18.981Z" fill="#1A1E23"/>
<path d="M90.7382 11.0263C87.6563 11.0263 85.0742 13.0879 85.0742 16.4613C85.0742 19.8139 87.6563 21.8547 90.7382 21.8547C93.8202 21.8547 96.4023 19.8139 96.4023 16.4613C96.4023 13.0879 93.8202 11.0263 90.7382 11.0263ZM90.7382 18.981C89.0307 18.981 88.2394 18.1689 88.2394 16.4613C88.2394 14.7121 89.0307 13.9 90.7382 13.9C92.4458 13.9 93.2371 14.7121 93.2371 16.4613C93.2371 18.1689 92.4458 18.981 90.7382 18.981Z" fill="#1A1E23"/>
<path d="M103.407 11.0263C100.325 11.0263 97.7433 13.0879 97.7433 16.4613C97.7433 19.8139 100.325 21.8547 103.407 21.8547C106.489 21.8547 109.071 19.8139 109.071 16.4613C109.071 13.0879 106.489 11.0263 103.407 11.0263ZM103.407 18.981C101.7 18.981 100.909 18.1689 100.909 16.4613C100.909 14.7121 101.7 13.9 103.407 13.9C105.115 13.9 105.906 14.7121 105.906 16.4613C105.906 18.1689 105.115 18.981 103.407 18.981Z" fill="#1A1E23"/>
<path d="M24.7973 8.08618L13.2273 0L9.46353 2.65183V5.86875L17.8204 11.7366C18.8155 12.4354 19.4078 13.5862 19.4078 14.8022L19.409 26.5463C23.9741 24.2388 26.3915 19.2815 26.3915 18.6493V11.1448C26.3915 9.92596 25.7963 8.7844 24.7973 8.08618Z" fill="#1A1E23"/>
<path d="M17.8204 11.7366L7.16785 4.2568L4.46936 6.15736V9.434L10.8026 13.864C11.8009 14.5623 12.3955 15.704 12.3955 16.9223V27.9877C12.5542 27.9957 12.7134 27.9999 12.8729 27.9999C16.9101 28.0013 19.409 26.5463 19.409 26.5463L19.4078 14.8022C19.4078 13.5862 18.8155 12.4354 17.8204 11.7366Z" fill="#1A1E23" fill-opacity="0.86"/>
<path d="M0.0255432 11.1906C0.0255319 9.99071 0.602382 8.86557 1.57584 8.16412L2.10686 7.78147L10.8026 13.864C11.8009 14.5623 12.3955 15.704 12.3955 16.9223V27.9978C6.54174 27.9978 0.0255432 22.3727 0.0256593 17.7703C0.0257755 13.1679 0.0255658 13.5878 0.0255432 11.1906Z" fill="#1A1E23" fill-opacity="0.76"/>
</g>
<defs>
<clipPath id="clip0_1_123">
<rect width="109" height="28" fill="white"/>
</clipPath>
</defs>
</svg>
