<svg width="40" height="40" viewBox="0 0 40 40" fill="none"
  xmlns="http://www.w3.org/2000/svg">
  <g clip-path="url(#clip0_5_2)">
    <rect width="40" height="40" rx="11.6667" fill="white"/>
    <rect width="40" height="40" rx="11.6667" fill="url(#paint0_linear_5_2)" fill-opacity="0.2"/>
    <line x1="9.53674e-07" y1="7.91668" x2="40" y2="7.91668" stroke="black" stroke-opacity="0.08" stroke-width="0.833333"/>
    <line x1="1.90735e-06" y1="16.25" x2="40" y2="16.25" stroke="black" stroke-opacity="0.08" stroke-width="0.833333"/>
    <line x1="1.90735e-06" y1="24.5833" x2="40" y2="24.5833" stroke="black" stroke-opacity="0.08" stroke-width="0.833333"/>
    <line x1="1.90735e-06" y1="32.9167" x2="40" y2="32.9167" stroke="black" stroke-opacity="0.08" stroke-width="0.833333"/>
    <line x1="7.91667" y1="40.8333" x2="7.91666" y2="0.833344" stroke="black" stroke-opacity="0.08" stroke-width="0.833333"/>
    <line x1="16.25" y1="40.8333" x2="16.25" y2="0.833328" stroke="black" stroke-opacity="0.08" stroke-width="0.833333"/>
    <line x1="24.5833" y1="40.8333" x2="24.5833" y2="0.833328" stroke="black" stroke-opacity="0.08" stroke-width="0.833333"/>
    <line x1="31.25" y1="40.8333" x2="31.25" y2="0.833328" stroke="black" stroke-opacity="0.08" stroke-width="0.833333"/>
    <circle cx="20" cy="20" r="10" fill="black"/>
    <circle cx="20" cy="20" r="10" fill="url(#paint1_linear_5_2)" fill-opacity="0.3"/>
    <path d="M36.25 20C36.25 28.9746 28.9746 36.25 20 36.25C11.0254 36.25 3.75 28.9746 3.75 20C3.75 11.0254 11.0254 3.74999 20 3.74999C28.9746 3.74999 36.25 11.0254 36.25 20Z" stroke="black" stroke-opacity="0.08" stroke-width="0.833333"/>
    <g filter="url(#filter0_b_5_2)">
      <rect x="9.53674e-07" y="20" width="40" height="20" fill="white" fill-opacity="0.14"/>
    </g>
  </g>
  <rect x="0.416667" y="0.416667" width="39.1667" height="39.1667" rx="11.25" stroke="black" stroke-opacity="0.08" stroke-width="0.833333"/>
  <defs>
    <filter id="filter0_b_5_2" x="-0.833334" y="19.1667" width="41.6667" height="21.6667" filterUnits="userSpaceOnUse" color-interpolation-filters="sRGB">
      <feFlood flood-opacity="0" result="BackgroundImageFix"/>
      <feGaussianBlur in="BackgroundImageFix" stdDeviation="0.416667"/>
      <feComposite in2="SourceAlpha" operator="in" result="effect1_backgroundBlur_5_2"/>
      <feBlend mode="normal" in="SourceGraphic" in2="effect1_backgroundBlur_5_2" result="shape"/>
    </filter>
    <linearGradient id="paint0_linear_5_2" x1="20" y1="0" x2="20" y2="40" gradientUnits="userSpaceOnUse">
      <stop stop-opacity="0"/>
      <stop offset="1"/>
    </linearGradient>
    <linearGradient id="paint1_linear_5_2" x1="20" y1="10" x2="20" y2="30" gradientUnits="userSpaceOnUse">
      <stop stop-color="white"/>
      <stop offset="0.635487" stop-color="white" stop-opacity="0"/>
    </linearGradient>
    <clipPath id="clip0_5_2">
      <rect width="40" height="40" rx="11.6667" fill="white"/>
    </clipPath>
  </defs>
</svg>
