<svg width="40" height="40" viewBox="0 0 40 40" fill="none"
xmlns="http://www.w3.org/2000/svg">
    <path d="M30.7672 9.54847C30.8387 9.42632 30.876 9.30066 30.876 9.17241C30.876 7.97262 27.6125 7 23.5868 7C20.594 7 18.0224 7.53754 16.8998 8.30633C15.9904 8.07232 14.8103 7.93103 13.5207 7.93103C10.6451 7.93103 8.31405 8.63348 8.31405 9.5C8.31405 9.54825 8.32128 9.59599 8.33543 9.64314C6.95235 9.84504 6 10.2687 6 10.7586C6 11.4442 7.86486 12 10.1653 12H29.8347C32.1351 12 34 11.4442 34 10.7586C34 10.1686 32.6187 9.67467 30.7672 9.54847Z" fill="url(#paint0_linear_114_109)" shape-rendering="crispEdges"/>
    <path d="M30.6518 28.5485C30.7258 28.4263 30.7645 28.3007 30.7645 28.1724C30.7645 26.9726 27.3844 26 23.2149 26C20.1152 26 17.4518 26.5375 16.2891 27.3063C15.3472 27.0723 14.1249 26.931 12.7893 26.931C9.81103 26.931 7.39669 27.6335 7.39669 28.5C7.39669 28.5483 7.40418 28.596 7.41884 28.6431C5.98636 28.845 5 29.2687 5 29.7586C5 30.4442 6.93147 31 9.31405 31H29.686C32.0685 31 34 30.4442 34 29.7586C34 29.1686 32.5694 28.6747 30.6518 28.5485Z" fill="url(#paint1_linear_114_109)" shape-rendering="crispEdges"/>
    <path d="M33.0745 19.0776C33.1613 18.8821 33.2066 18.6811 33.2066 18.4759C33.2066 16.5562 29.2438 15 24.3554 15C20.7213 15 17.5987 15.8601 16.2355 17.0901C15.1312 16.7157 13.6982 16.4897 12.1322 16.4897C8.64052 16.4897 5.80992 17.6136 5.80992 19C5.80992 19.0772 5.8187 19.1536 5.83588 19.229C4.15642 19.5521 3 20.2299 3 21.0138C3 22.1107 5.26448 23 8.05785 23H31.9421C34.7355 23 37 22.1107 37 21.0138C37 20.0697 35.3227 19.2795 33.0745 19.0776Z" fill="url(#paint2_linear_114_109)" shape-rendering="crispEdges"/>
  <defs>
    <filter id="filter0_d_114_109" x="2" y="7" width="36" height="13" filterUnits="userSpaceOnUse" color-interpolation-filters="sRGB">
      <feFlood flood-opacity="0" result="BackgroundImageFix"/>
      <feColorMatrix in="SourceAlpha" type="matrix" values="0 0 0 0 0 0 0 0 0 0 0 0 0 0 0 0 0 0 127 0" result="hardAlpha"/>
      <feOffset dy="4"/>
      <feGaussianBlur stdDeviation="2"/>
      <feComposite in2="hardAlpha" operator="out"/>
      <feColorMatrix type="matrix" values="0 0 0 0 0 0 0 0 0 0 0 0 0 0 0 0 0 0 0.04 0"/>
      <feBlend mode="normal" in2="BackgroundImageFix" result="effect1_dropShadow_114_109"/>
      <feBlend mode="normal" in="SourceGraphic" in2="effect1_dropShadow_114_109" result="shape"/>
    </filter>
    <filter id="filter1_d_114_109" x="1" y="26" width="37" height="13" filterUnits="userSpaceOnUse" color-interpolation-filters="sRGB">
      <feFlood flood-opacity="0" result="BackgroundImageFix"/>
      <feColorMatrix in="SourceAlpha" type="matrix" values="0 0 0 0 0 0 0 0 0 0 0 0 0 0 0 0 0 0 127 0" result="hardAlpha"/>
      <feOffset dy="4"/>
      <feGaussianBlur stdDeviation="2"/>
      <feComposite in2="hardAlpha" operator="out"/>
      <feColorMatrix type="matrix" values="0 0 0 0 0 0 0 0 0 0 0 0 0 0 0 0 0 0 0.04 0"/>
      <feBlend mode="normal" in2="BackgroundImageFix" result="effect1_dropShadow_114_109"/>
      <feBlend mode="normal" in="SourceGraphic" in2="effect1_dropShadow_114_109" result="shape"/>
    </filter>
    <filter id="filter2_d_114_109" x="-1" y="15" width="42" height="16" filterUnits="userSpaceOnUse" color-interpolation-filters="sRGB">
      <feFlood flood-opacity="0" result="BackgroundImageFix"/>
      <feColorMatrix in="SourceAlpha" type="matrix" values="0 0 0 0 0 0 0 0 0 0 0 0 0 0 0 0 0 0 127 0" result="hardAlpha"/>
      <feOffset dy="4"/>
      <feGaussianBlur stdDeviation="2"/>
      <feComposite in2="hardAlpha" operator="out"/>
      <feColorMatrix type="matrix" values="0 0 0 0 0 0 0 0 0 0 0 0 0 0 0 0 0 0 0.04 0"/>
      <feBlend mode="normal" in2="BackgroundImageFix" result="effect1_dropShadow_114_109"/>
      <feBlend mode="normal" in="SourceGraphic" in2="effect1_dropShadow_114_109" result="shape"/>
    </filter>
    <linearGradient id="paint0_linear_114_109" x1="7.78092" y1="11.5536" x2="13.915" y2="-3.6957" gradientUnits="userSpaceOnUse">
      <stop stopColor="white"/>
      <stop offset="1" stopColor="white" stop-opacity="0.58"/>
    </linearGradient>
    <linearGradient id="paint1_linear_114_109" x1="6.84452" y1="30.5536" x2="12.8235" y2="15.159" gradientUnits="userSpaceOnUse">
      <stop stopColor="white"/>
      <stop offset="1" stopColor="white" stop-opacity="0.58"/>
    </linearGradient>
    <linearGradient id="paint2_linear_114_109" x1="5.16254" y1="22.2857" x2="16.8919" y2="0.155864" gradientUnits="userSpaceOnUse">
      <stop stopColor="white"/>
      <stop offset="1" stopColor="white" stop-opacity="0.58"/>
    </linearGradient>
  </defs>
</svg>
