<svg width="40" height="40" viewBox="0 0 40 40" fill="none" xmlns="http://www.w3.org/2000/svg">
<g clip-path="url(#clip0_107_22)">
<g filter="url(#filter0_d_107_22)">
<path d="M17.9218 7.42716C17.9678 7.16704 17.9917 6.89944 17.9917 6.62632C17.9917 4.07127 15.8938 2 13.3058 2C11.3818 2 9.72871 3.14472 9.00704 4.78193C8.4224 4.28359 7.66376 3.98271 6.83471 3.98271C4.98616 3.98271 3.48761 5.47863 3.48761 7.32394C3.48761 7.4267 3.49226 7.52837 3.50135 7.62876C2.61223 8.05872 2.00001 8.96091 2.00001 10.0043C2.00001 11.4643 3.19885 12.6479 4.67769 12.6479H17.3223C18.8012 12.6479 20 11.4643 20 10.0043C20 8.74771 19.112 7.69591 17.9218 7.42716Z" fill="url(#paint0_linear_107_22)" shape-rendering="crispEdges"/>
</g>
<g filter="url(#filter1_i_107_22)">
<path d="M35.0381 20.1655C35.0381 28.5411 28.3117 35.3309 20.0143 35.3309C11.717 35.3309 4.9906 28.5411 4.9906 20.1655C4.9906 11.7898 11.717 5 20.0143 5C28.3117 5 35.0381 11.7898 35.0381 20.1655Z" fill="url(#paint1_linear_107_22)"/>
</g>
<g filter="url(#filter2_d_107_22)">
<path d="M36.9397 17.7734C36.9857 17.5129 37.0097 17.245 37.0097 16.9716C37.0097 14.4137 34.9094 12.3401 32.3185 12.3401C30.3924 12.3401 28.7374 13.4861 28.0149 15.1252C27.4296 14.6263 26.6701 14.325 25.8402 14.325C23.9895 14.325 22.4893 15.8226 22.4893 17.67C22.4893 17.7729 22.4939 17.8747 22.503 17.9752C21.6129 18.4056 21 19.3088 21 20.3534C21 21.815 22.2002 23 23.6807 23H36.3396C37.8201 23 39.0203 21.815 39.0203 20.3534C39.0203 19.0954 38.1313 18.0424 36.9397 17.7734Z" fill="url(#paint2_linear_107_22)" shape-rendering="crispEdges"/>
</g>
<g filter="url(#filter3_d_107_22)">
<path d="M19.6066 31.0015C19.6575 30.7138 19.684 30.4179 19.684 30.1159C19.684 27.2905 17.364 25 14.5022 25C12.3746 25 10.5465 26.2659 9.7485 28.0763C9.10199 27.5253 8.26306 27.1925 7.34629 27.1925C5.30211 27.1925 3.64498 28.8468 3.64498 30.8873C3.64498 31.001 3.65011 31.1134 3.66017 31.2244C2.67696 31.6999 1.99995 32.6975 1.99995 33.8513C1.99995 35.4659 3.32566 36.7747 4.961 36.7747H18.9437C20.5791 36.7747 21.9048 35.4659 21.9048 33.8513C21.9048 32.4618 20.9228 31.2987 19.6066 31.0015Z" fill="url(#paint3_linear_107_22)" shape-rendering="crispEdges"/>
</g>
</g>
<defs>
<filter id="filter0_d_107_22" x="-0.24166" y="0.318755" width="22.4833" height="15.1311" filterUnits="userSpaceOnUse" color-interpolation-filters="sRGB">
<feFlood flood-opacity="0" result="BackgroundImageFix"/>
<feColorMatrix in="SourceAlpha" type="matrix" values="0 0 0 0 0 0 0 0 0 0 0 0 0 0 0 0 0 0 127 0" result="hardAlpha"/>
<feOffset dy="0.560415"/>
<feGaussianBlur stdDeviation="1.12083"/>
<feComposite in2="hardAlpha" operator="out"/>
<feColorMatrix type="matrix" values="0 0 0 0 0 0 0 0 0 0 0 0 0 0 0 0 0 0 0.15 0"/>
<feBlend mode="normal" in2="BackgroundImageFix" result="effect1_dropShadow_107_22"/>
<feBlend mode="normal" in="SourceGraphic" in2="effect1_dropShadow_107_22" result="shape"/>
</filter>
<filter id="filter1_i_107_22" x="4.9906" y="5" width="30.0475" height="31.0396" filterUnits="userSpaceOnUse" color-interpolation-filters="sRGB">
<feFlood flood-opacity="0" result="BackgroundImageFix"/>
<feBlend mode="normal" in="SourceGraphic" in2="BackgroundImageFix" result="shape"/>
<feColorMatrix in="SourceAlpha" type="matrix" values="0 0 0 0 0 0 0 0 0 0 0 0 0 0 0 0 0 0 127 0" result="hardAlpha"/>
<feOffset dy="0.708667"/>
<feGaussianBlur stdDeviation="1.2756"/>
<feComposite in2="hardAlpha" operator="arithmetic" k2="-1" k3="1"/>
<feColorMatrix type="matrix" values="0 0 0 0 1 0 0 0 0 1 0 0 0 0 1 0 0 0 0.81 0"/>
<feBlend mode="normal" in2="shape" result="effect1_innerShadow_107_22"/>
</filter>
<filter id="filter2_d_107_22" x="18.7558" y="10.6569" width="22.5086" height="15.1483" filterUnits="userSpaceOnUse" color-interpolation-filters="sRGB">
<feFlood flood-opacity="0" result="BackgroundImageFix"/>
<feColorMatrix in="SourceAlpha" type="matrix" values="0 0 0 0 0 0 0 0 0 0 0 0 0 0 0 0 0 0 127 0" result="hardAlpha"/>
<feOffset dy="0.561046"/>
<feGaussianBlur stdDeviation="1.12209"/>
<feComposite in2="hardAlpha" operator="out"/>
<feColorMatrix type="matrix" values="0 0 0 0 0 0 0 0 0 0 0 0 0 0 0 0 0 0 0.15 0"/>
<feBlend mode="normal" in2="BackgroundImageFix" result="effect1_dropShadow_107_22"/>
<feBlend mode="normal" in="SourceGraphic" in2="effect1_dropShadow_107_22" result="shape"/>
</filter>
<filter id="filter3_d_107_22" x="-0.843545" y="22.8673" width="25.5919" height="17.4617" filterUnits="userSpaceOnUse" color-interpolation-filters="sRGB">
<feFlood flood-opacity="0" result="BackgroundImageFix"/>
<feColorMatrix in="SourceAlpha" type="matrix" values="0 0 0 0 0 0 0 0 0 0 0 0 0 0 0 0 0 0 127 0" result="hardAlpha"/>
<feOffset dy="0.710886"/>
<feGaussianBlur stdDeviation="1.42177"/>
<feComposite in2="hardAlpha" operator="out"/>
<feColorMatrix type="matrix" values="0 0 0 0 0 0 0 0 0 0 0 0 0 0 0 0 0 0 0.15 0"/>
<feBlend mode="normal" in2="BackgroundImageFix" result="effect1_dropShadow_107_22"/>
<feBlend mode="normal" in="SourceGraphic" in2="effect1_dropShadow_107_22" result="shape"/>
</filter>
<linearGradient id="paint0_linear_107_22" x1="3.14488" y1="11.6972" x2="21.2579" y2="-1.89579" gradientUnits="userSpaceOnUse">
<stop stop-color="white"/>
<stop offset="1" stop-color="white" stop-opacity="0.58"/>
</linearGradient>
<linearGradient id="paint1_linear_107_22" x1="17.7322" y1="28.4201" x2="30.2696" y2="6.63705" gradientUnits="userSpaceOnUse">
<stop stop-color="#FF9900"/>
<stop offset="1" stop-color="#FFEE94"/>
</linearGradient>
<linearGradient id="paint2_linear_107_22" x1="22.1462" y1="22.0482" x2="40.2796" y2="8.43991" gradientUnits="userSpaceOnUse">
<stop stop-color="white"/>
<stop offset="1" stop-color="white" stop-opacity="0.58"/>
</linearGradient>
<linearGradient id="paint3_linear_107_22" x1="3.26598" y1="35.7234" x2="23.2958" y2="20.6919" gradientUnits="userSpaceOnUse">
<stop stop-color="white"/>
<stop offset="1" stop-color="white" stop-opacity="0.58"/>
</linearGradient>
<clipPath id="clip0_107_22">
<rect width="40" height="40" fill="white"/>
</clipPath>
</defs>
</svg>
