<svg width="40" height="40" viewBox="0 0 40 40" fill="none" xmlns="http://www.w3.org/2000/svg">
<g filter="url(#filter0_d_107_229)">
<path d="M31.7001 13.4419C31.7801 12.9894 31.8218 12.5238 31.8218 12.0487C31.8218 7.60351 28.1718 4 23.6694 4C20.3222 4 17.4462 5.99154 16.1906 8.83988C15.1735 7.97289 13.8536 7.44943 12.4113 7.44943C9.19529 7.44943 6.58817 10.052 6.58817 13.2623C6.58817 13.4411 6.59626 13.618 6.61208 13.7927C5.06523 14.5407 4.00011 16.1103 4.00011 17.9255C4.00011 20.4656 6.0858 22.5247 8.65863 22.5247H30.6572C33.23 22.5247 35.3157 20.4656 35.3157 17.9255C35.3157 15.7394 33.7708 13.9095 31.7001 13.4419Z" fill="url(#paint0_linear_107_229)" shape-rendering="crispEdges"/>
</g>
<g filter="url(#filter1_di_107_229)">
<path d="M8.80196 24.8771C9.53736 25.845 10.5669 27.7808 8.80196 27.7808C7.037 27.7808 8.06656 25.845 8.80196 24.8771Z" fill="#9FFFF9" shape-rendering="crispEdges"/>
<path d="M8.72234 24.8166L8.80196 24.7118L8.88159 24.8166C9.25178 25.3038 9.70402 26.0441 9.83741 26.6711C9.90399 26.9841 9.89573 27.2908 9.73139 27.5212C9.56454 27.7552 9.25896 27.8808 8.80196 27.8808C8.34497 27.8808 8.03939 27.7552 7.87253 27.5212C7.70819 27.2908 7.69993 26.9841 7.76652 26.6711C7.89991 26.0441 8.35215 25.3038 8.72234 24.8166Z" stroke="white" stroke-opacity="0.2" stroke-width="0.2" shape-rendering="crispEdges"/>
</g>
<g filter="url(#filter2_di_107_229)">
<path d="M15.7609 24.8771C16.4963 25.845 17.5259 27.7808 15.7609 27.7808C13.996 27.7808 15.0255 25.845 15.7609 24.8771Z" fill="#9FFFF9" shape-rendering="crispEdges"/>
<path d="M15.6813 24.8166L15.7609 24.7118L15.8406 24.8166C16.2108 25.3038 16.663 26.0441 16.7964 26.6711C16.863 26.9841 16.8547 27.2908 16.6904 27.5212C16.5235 27.7552 16.2179 27.8808 15.7609 27.8808C15.304 27.8808 14.9984 27.7552 14.8315 27.5212C14.6672 27.2908 14.6589 26.9841 14.7255 26.6711C14.8589 26.0441 15.3111 25.3038 15.6813 24.8166Z" stroke="white" stroke-opacity="0.2" stroke-width="0.2" shape-rendering="crispEdges"/>
</g>
<g filter="url(#filter3_di_107_229)">
<path d="M29.679 24.8771C30.4144 25.845 31.444 27.7808 29.679 27.7808C27.9141 27.7808 28.9436 25.845 29.679 24.8771Z" fill="#9FFFF9" shape-rendering="crispEdges"/>
<path d="M29.5994 24.8166L29.679 24.7118L29.7587 24.8166C30.1289 25.3038 30.5811 26.0441 30.7145 26.6711C30.7811 26.9841 30.7728 27.2908 30.6085 27.5212C30.4416 27.7552 30.136 27.8808 29.679 27.8808C29.222 27.8808 28.9165 27.7552 28.7496 27.5212C28.5853 27.2908 28.577 26.9841 28.6436 26.6711C28.777 26.0441 29.2292 25.3038 29.5994 24.8166Z" stroke="white" stroke-opacity="0.2" stroke-width="0.2" shape-rendering="crispEdges"/>
</g>
<g filter="url(#filter4_di_107_229)">
<path d="M22.5106 24.8771C23.246 25.845 24.2755 27.7808 22.5106 27.7808C20.7456 27.7808 21.7752 25.845 22.5106 24.8771Z" fill="#9FFFF9" shape-rendering="crispEdges"/>
<path d="M22.431 24.8166L22.5106 24.7118L22.5902 24.8166C22.9604 25.3038 23.4126 26.0441 23.546 26.6711C23.6126 26.9841 23.6044 27.2908 23.44 27.5212C23.2732 27.7552 22.9676 27.8808 22.5106 27.8808C22.0536 27.8808 21.748 27.7552 21.5812 27.5212C21.4168 27.2908 21.4086 26.9841 21.4751 26.6711C21.6085 26.0441 22.0608 25.3038 22.431 24.8166Z" stroke="white" stroke-opacity="0.2" stroke-width="0.2" shape-rendering="crispEdges"/>
</g>
<g filter="url(#filter5_di_107_229)">
<path d="M12.2816 30.0963C13.017 31.0642 14.0465 33 12.2816 33C10.5166 33 11.5462 31.0642 12.2816 30.0963Z" fill="#9FFFF9" shape-rendering="crispEdges"/>
<path d="M12.202 30.0358L12.2816 29.931L12.3612 30.0358C12.7314 30.523 13.1836 31.2633 13.317 31.8903C13.3836 32.2033 13.3753 32.51 13.211 32.7405C13.0442 32.9745 12.7386 33.1 12.2816 33.1C11.8246 33.1 11.519 32.9745 11.3521 32.7405C11.1878 32.51 11.1795 32.2033 11.2461 31.8903C11.3795 31.2633 11.8318 30.523 12.202 30.0358Z" stroke="white" stroke-opacity="0.2" stroke-width="0.2" shape-rendering="crispEdges"/>
</g>
<g filter="url(#filter6_di_107_229)">
<path d="M19.2406 30.0963C19.976 31.0642 21.0055 33 19.2406 33C17.4756 33 18.5052 31.0642 19.2406 30.0963Z" fill="#9FFFF9" shape-rendering="crispEdges"/>
<path d="M19.1609 30.0358L19.2406 29.931L19.3202 30.0358C19.6904 30.523 20.1426 31.2633 20.276 31.8903C20.3426 32.2033 20.3343 32.51 20.17 32.7405C20.0031 32.9745 19.6976 33.1 19.2406 33.1C18.7836 33.1 18.478 32.9745 18.3111 32.7405C18.1468 32.51 18.1385 32.2033 18.2051 31.8903C18.3385 31.2633 18.7907 30.523 19.1609 30.0358Z" stroke="white" stroke-opacity="0.2" stroke-width="0.2" shape-rendering="crispEdges"/>
</g>
<g filter="url(#filter7_di_107_229)">
<path d="M26.1995 30.0963C26.9349 31.0642 27.9645 33 26.1995 33C24.4346 33 25.4641 31.0642 26.1995 30.0963Z" fill="#9FFFF9" shape-rendering="crispEdges"/>
<path d="M26.1199 30.0358L26.1995 29.931L26.2792 30.0358C26.6494 30.523 27.1016 31.2633 27.235 31.8903C27.3016 32.2033 27.2933 32.51 27.129 32.7405C26.9621 32.9745 26.6565 33.1 26.1995 33.1C25.7426 33.1 25.437 32.9745 25.2701 32.7405C25.1058 32.51 25.0975 32.2033 25.1641 31.8903C25.2975 31.2633 25.7497 30.523 26.1199 30.0358Z" stroke="white" stroke-opacity="0.2" stroke-width="0.2" shape-rendering="crispEdges"/>
</g>
<defs>
<filter id="filter0_d_107_229" x="0.100185" y="1.07505" width="39.1154" height="26.3245" filterUnits="userSpaceOnUse" color-interpolation-filters="sRGB">
<feFlood flood-opacity="0" result="BackgroundImageFix"/>
<feColorMatrix in="SourceAlpha" type="matrix" values="0 0 0 0 0 0 0 0 0 0 0 0 0 0 0 0 0 0 127 0" result="hardAlpha"/>
<feOffset dy="0.974984"/>
<feGaussianBlur stdDeviation="1.94997"/>
<feComposite in2="hardAlpha" operator="out"/>
<feColorMatrix type="matrix" values="0 0 0 0 0 0 0 0 0 0 0 0 0 0 0 0 0 0 0.15 0"/>
<feBlend mode="normal" in2="BackgroundImageFix" result="effect1_dropShadow_107_229"/>
<feBlend mode="normal" in="SourceGraphic" in2="effect1_dropShadow_107_229" result="shape"/>
</filter>
<filter id="filter1_di_107_229" x="6.87169" y="24.5465" width="3.86051" height="4.98549" filterUnits="userSpaceOnUse" color-interpolation-filters="sRGB">
<feFlood flood-opacity="0" result="BackgroundImageFix"/>
<feColorMatrix in="SourceAlpha" type="matrix" values="0 0 0 0 0 0 0 0 0 0 0 0 0 0 0 0 0 0 127 0" result="hardAlpha"/>
<feOffset dy="0.795532"/>
<feGaussianBlur stdDeviation="0.377878"/>
<feComposite in2="hardAlpha" operator="out"/>
<feColorMatrix type="matrix" values="0 0 0 0 0 0 0 0 0 0 0 0 0 0 0 0 0 0 0.12 0"/>
<feBlend mode="normal" in2="BackgroundImageFix" result="effect1_dropShadow_107_229"/>
<feBlend mode="normal" in="SourceGraphic" in2="effect1_dropShadow_107_229" result="shape"/>
<feColorMatrix in="SourceAlpha" type="matrix" values="0 0 0 0 0 0 0 0 0 0 0 0 0 0 0 0 0 0 127 0" result="hardAlpha"/>
<feOffset dy="0.357989"/>
<feGaussianBlur stdDeviation="0.0596649"/>
<feComposite in2="hardAlpha" operator="arithmetic" k2="-1" k3="1"/>
<feColorMatrix type="matrix" values="0 0 0 0 1 0 0 0 0 1 0 0 0 0 1 0 0 0 0.21 0"/>
<feBlend mode="normal" in2="shape" result="effect2_innerShadow_107_229"/>
</filter>
<filter id="filter2_di_107_229" x="13.8307" y="24.5465" width="3.86051" height="4.98549" filterUnits="userSpaceOnUse" color-interpolation-filters="sRGB">
<feFlood flood-opacity="0" result="BackgroundImageFix"/>
<feColorMatrix in="SourceAlpha" type="matrix" values="0 0 0 0 0 0 0 0 0 0 0 0 0 0 0 0 0 0 127 0" result="hardAlpha"/>
<feOffset dy="0.795532"/>
<feGaussianBlur stdDeviation="0.377878"/>
<feComposite in2="hardAlpha" operator="out"/>
<feColorMatrix type="matrix" values="0 0 0 0 0 0 0 0 0 0 0 0 0 0 0 0 0 0 0.12 0"/>
<feBlend mode="normal" in2="BackgroundImageFix" result="effect1_dropShadow_107_229"/>
<feBlend mode="normal" in="SourceGraphic" in2="effect1_dropShadow_107_229" result="shape"/>
<feColorMatrix in="SourceAlpha" type="matrix" values="0 0 0 0 0 0 0 0 0 0 0 0 0 0 0 0 0 0 127 0" result="hardAlpha"/>
<feOffset dy="0.357989"/>
<feGaussianBlur stdDeviation="0.0596649"/>
<feComposite in2="hardAlpha" operator="arithmetic" k2="-1" k3="1"/>
<feColorMatrix type="matrix" values="0 0 0 0 1 0 0 0 0 1 0 0 0 0 1 0 0 0 0.21 0"/>
<feBlend mode="normal" in2="shape" result="effect2_innerShadow_107_229"/>
</filter>
<filter id="filter3_di_107_229" x="27.7489" y="24.5465" width="3.86039" height="4.98549" filterUnits="userSpaceOnUse" color-interpolation-filters="sRGB">
<feFlood flood-opacity="0" result="BackgroundImageFix"/>
<feColorMatrix in="SourceAlpha" type="matrix" values="0 0 0 0 0 0 0 0 0 0 0 0 0 0 0 0 0 0 127 0" result="hardAlpha"/>
<feOffset dy="0.795532"/>
<feGaussianBlur stdDeviation="0.377878"/>
<feComposite in2="hardAlpha" operator="out"/>
<feColorMatrix type="matrix" values="0 0 0 0 0 0 0 0 0 0 0 0 0 0 0 0 0 0 0.12 0"/>
<feBlend mode="normal" in2="BackgroundImageFix" result="effect1_dropShadow_107_229"/>
<feBlend mode="normal" in="SourceGraphic" in2="effect1_dropShadow_107_229" result="shape"/>
<feColorMatrix in="SourceAlpha" type="matrix" values="0 0 0 0 0 0 0 0 0 0 0 0 0 0 0 0 0 0 127 0" result="hardAlpha"/>
<feOffset dy="0.357989"/>
<feGaussianBlur stdDeviation="0.0596649"/>
<feComposite in2="hardAlpha" operator="arithmetic" k2="-1" k3="1"/>
<feColorMatrix type="matrix" values="0 0 0 0 1 0 0 0 0 1 0 0 0 0 1 0 0 0 0.21 0"/>
<feBlend mode="normal" in2="shape" result="effect2_innerShadow_107_229"/>
</filter>
<filter id="filter4_di_107_229" x="20.5803" y="24.5465" width="3.86051" height="4.98549" filterUnits="userSpaceOnUse" color-interpolation-filters="sRGB">
<feFlood flood-opacity="0" result="BackgroundImageFix"/>
<feColorMatrix in="SourceAlpha" type="matrix" values="0 0 0 0 0 0 0 0 0 0 0 0 0 0 0 0 0 0 127 0" result="hardAlpha"/>
<feOffset dy="0.795532"/>
<feGaussianBlur stdDeviation="0.377878"/>
<feComposite in2="hardAlpha" operator="out"/>
<feColorMatrix type="matrix" values="0 0 0 0 0 0 0 0 0 0 0 0 0 0 0 0 0 0 0.12 0"/>
<feBlend mode="normal" in2="BackgroundImageFix" result="effect1_dropShadow_107_229"/>
<feBlend mode="normal" in="SourceGraphic" in2="effect1_dropShadow_107_229" result="shape"/>
<feColorMatrix in="SourceAlpha" type="matrix" values="0 0 0 0 0 0 0 0 0 0 0 0 0 0 0 0 0 0 127 0" result="hardAlpha"/>
<feOffset dy="0.357989"/>
<feGaussianBlur stdDeviation="0.0596649"/>
<feComposite in2="hardAlpha" operator="arithmetic" k2="-1" k3="1"/>
<feColorMatrix type="matrix" values="0 0 0 0 1 0 0 0 0 1 0 0 0 0 1 0 0 0 0.21 0"/>
<feBlend mode="normal" in2="shape" result="effect2_innerShadow_107_229"/>
</filter>
<filter id="filter5_di_107_229" x="10.3513" y="29.7657" width="3.86051" height="4.98549" filterUnits="userSpaceOnUse" color-interpolation-filters="sRGB">
<feFlood flood-opacity="0" result="BackgroundImageFix"/>
<feColorMatrix in="SourceAlpha" type="matrix" values="0 0 0 0 0 0 0 0 0 0 0 0 0 0 0 0 0 0 127 0" result="hardAlpha"/>
<feOffset dy="0.795532"/>
<feGaussianBlur stdDeviation="0.377878"/>
<feComposite in2="hardAlpha" operator="out"/>
<feColorMatrix type="matrix" values="0 0 0 0 0 0 0 0 0 0 0 0 0 0 0 0 0 0 0.12 0"/>
<feBlend mode="normal" in2="BackgroundImageFix" result="effect1_dropShadow_107_229"/>
<feBlend mode="normal" in="SourceGraphic" in2="effect1_dropShadow_107_229" result="shape"/>
<feColorMatrix in="SourceAlpha" type="matrix" values="0 0 0 0 0 0 0 0 0 0 0 0 0 0 0 0 0 0 127 0" result="hardAlpha"/>
<feOffset dy="0.357989"/>
<feGaussianBlur stdDeviation="0.0596649"/>
<feComposite in2="hardAlpha" operator="arithmetic" k2="-1" k3="1"/>
<feColorMatrix type="matrix" values="0 0 0 0 1 0 0 0 0 1 0 0 0 0 1 0 0 0 0.21 0"/>
<feBlend mode="normal" in2="shape" result="effect2_innerShadow_107_229"/>
</filter>
<filter id="filter6_di_107_229" x="17.3103" y="29.7657" width="3.86051" height="4.98549" filterUnits="userSpaceOnUse" color-interpolation-filters="sRGB">
<feFlood flood-opacity="0" result="BackgroundImageFix"/>
<feColorMatrix in="SourceAlpha" type="matrix" values="0 0 0 0 0 0 0 0 0 0 0 0 0 0 0 0 0 0 127 0" result="hardAlpha"/>
<feOffset dy="0.795532"/>
<feGaussianBlur stdDeviation="0.377878"/>
<feComposite in2="hardAlpha" operator="out"/>
<feColorMatrix type="matrix" values="0 0 0 0 0 0 0 0 0 0 0 0 0 0 0 0 0 0 0.12 0"/>
<feBlend mode="normal" in2="BackgroundImageFix" result="effect1_dropShadow_107_229"/>
<feBlend mode="normal" in="SourceGraphic" in2="effect1_dropShadow_107_229" result="shape"/>
<feColorMatrix in="SourceAlpha" type="matrix" values="0 0 0 0 0 0 0 0 0 0 0 0 0 0 0 0 0 0 127 0" result="hardAlpha"/>
<feOffset dy="0.357989"/>
<feGaussianBlur stdDeviation="0.0596649"/>
<feComposite in2="hardAlpha" operator="arithmetic" k2="-1" k3="1"/>
<feColorMatrix type="matrix" values="0 0 0 0 1 0 0 0 0 1 0 0 0 0 1 0 0 0 0.21 0"/>
<feBlend mode="normal" in2="shape" result="effect2_innerShadow_107_229"/>
</filter>
<filter id="filter7_di_107_229" x="24.2694" y="29.7657" width="3.86039" height="4.98549" filterUnits="userSpaceOnUse" color-interpolation-filters="sRGB">
<feFlood flood-opacity="0" result="BackgroundImageFix"/>
<feColorMatrix in="SourceAlpha" type="matrix" values="0 0 0 0 0 0 0 0 0 0 0 0 0 0 0 0 0 0 127 0" result="hardAlpha"/>
<feOffset dy="0.795532"/>
<feGaussianBlur stdDeviation="0.377878"/>
<feComposite in2="hardAlpha" operator="out"/>
<feColorMatrix type="matrix" values="0 0 0 0 0 0 0 0 0 0 0 0 0 0 0 0 0 0 0.12 0"/>
<feBlend mode="normal" in2="BackgroundImageFix" result="effect1_dropShadow_107_229"/>
<feBlend mode="normal" in="SourceGraphic" in2="effect1_dropShadow_107_229" result="shape"/>
<feColorMatrix in="SourceAlpha" type="matrix" values="0 0 0 0 0 0 0 0 0 0 0 0 0 0 0 0 0 0 127 0" result="hardAlpha"/>
<feOffset dy="0.357989"/>
<feGaussianBlur stdDeviation="0.0596649"/>
<feComposite in2="hardAlpha" operator="arithmetic" k2="-1" k3="1"/>
<feColorMatrix type="matrix" values="0 0 0 0 1 0 0 0 0 1 0 0 0 0 1 0 0 0 0.21 0"/>
<feBlend mode="normal" in2="shape" result="effect2_innerShadow_107_229"/>
</filter>
<linearGradient id="paint0_linear_107_229" x1="5.99192" y1="20.8707" x2="37.5041" y2="-2.77772" gradientUnits="userSpaceOnUse">
<stop stop-color="white"/>
<stop offset="1" stop-color="white" stop-opacity="0.58"/>
</linearGradient>
</defs>
</svg>
