<svg width="40" height="40" viewBox="0 0 40 40" fill="none" xmlns="http://www.w3.org/2000/svg">
<g filter="url(#filter0_d_107_87)">
<path d="M32.4208 17.3468C32.5 16.8988 32.5413 16.4379 32.5413 15.9676C32.5413 11.5672 28.9282 8 24.4711 8C21.1576 8 18.3106 9.97147 17.0677 12.7911C16.0608 11.9329 14.7542 11.4147 13.3265 11.4147C10.1428 11.4147 7.56199 13.991 7.56199 17.169C7.56199 17.346 7.56999 17.5211 7.58566 17.694C6.05439 18.4345 5.00001 19.9882 5.00001 21.7851C5.00001 24.2996 7.06468 26.338 9.61158 26.338H31.3884C33.9353 26.338 36 24.2996 36 21.7851C36 19.6211 34.4707 17.8096 32.4208 17.3468Z" fill="url(#paint0_linear_107_87)" shape-rendering="crispEdges"/>
</g>
<g filter="url(#filter1_di_107_87)">
<path d="M9.75356 29C10.4815 29.9581 11.5007 31.8744 9.75356 31.8744C8.00638 31.8744 9.02557 29.9581 9.75356 29Z" fill="#9FFFF9" shape-rendering="crispEdges"/>
<path d="M9.67393 28.9395L9.75356 28.8347L9.83318 28.9395C10.1997 29.4219 10.6475 30.1548 10.7796 30.7757C10.8455 31.0856 10.8374 31.3896 10.6744 31.6181C10.509 31.8501 10.2061 31.9744 9.75356 31.9744C9.30101 31.9744 8.99812 31.8501 8.83267 31.6181C8.66974 31.3896 8.66162 31.0856 8.72756 30.7757C8.85965 30.1548 9.30745 29.4219 9.67393 28.9395Z" stroke="white" stroke-opacity="0.2" stroke-width="0.2" shape-rendering="crispEdges"/>
</g>
<g filter="url(#filter2_di_107_87)">
<path d="M23.6124 29C24.3404 29.9581 25.3596 31.8744 23.6124 31.8744C21.8653 31.8744 22.8845 29.9581 23.6124 29Z" fill="#9FFFF9" shape-rendering="crispEdges"/>
<path d="M23.5328 28.9395L23.6124 28.8347L23.6921 28.9395C24.0586 29.4219 24.5063 30.1548 24.6384 30.7757C24.7044 31.0856 24.6963 31.3896 24.5333 31.6181C24.3679 31.8501 24.065 31.9744 23.6124 31.9744C23.1599 31.9744 22.857 31.8501 22.6916 31.6181C22.5286 31.3896 22.5205 31.0856 22.5864 30.7757C22.7185 30.1548 23.1663 29.4219 23.5328 28.9395Z" stroke="white" stroke-opacity="0.2" stroke-width="0.2" shape-rendering="crispEdges"/>
</g>
<g filter="url(#filter3_di_107_87)">
<path d="M16.683 29C17.411 29.9581 18.4302 31.8744 16.683 31.8744C14.9358 31.8744 15.955 29.9581 16.683 29Z" fill="#9FFFF9" shape-rendering="crispEdges"/>
<path d="M16.6034 28.9395L16.683 28.8347L16.7626 28.9395C17.1291 29.4219 17.5769 30.1548 17.709 30.7757C17.7749 31.0856 17.7668 31.3896 17.6039 31.6181C17.4384 31.8501 17.1355 31.9744 16.683 31.9744C16.2305 31.9744 15.9276 31.8501 15.7621 31.6181C15.5992 31.3896 15.5911 31.0856 15.657 30.7757C15.7891 30.1548 16.2369 29.4219 16.6034 28.9395Z" stroke="white" stroke-opacity="0.2" stroke-width="0.2" shape-rendering="crispEdges"/>
</g>
<g filter="url(#filter4_di_107_87)">
<path d="M30.5419 29C31.2699 29.9581 32.2891 31.8744 30.5419 31.8744C28.7947 31.8744 29.8139 29.9581 30.5419 29Z" fill="#9FFFF9" shape-rendering="crispEdges"/>
<path d="M30.4623 28.9395L30.5419 28.8347L30.6215 28.9395C30.988 29.4219 31.4358 30.1548 31.5679 30.7757C31.6338 31.0856 31.6257 31.3896 31.4628 31.6181C31.2973 31.8501 30.9944 31.9744 30.5419 31.9744C30.0893 31.9744 29.7864 31.8501 29.621 31.6181C29.4581 31.3896 29.45 31.0856 29.5159 30.7757C29.648 30.1548 30.0958 29.4219 30.4623 28.9395Z" stroke="white" stroke-opacity="0.2" stroke-width="0.2" shape-rendering="crispEdges"/>
</g>
<defs>
<filter id="filter0_d_107_87" x="1.13936" y="5.10452" width="38.7213" height="26.0593" filterUnits="userSpaceOnUse" color-interpolation-filters="sRGB">
<feFlood flood-opacity="0" result="BackgroundImageFix"/>
<feColorMatrix in="SourceAlpha" type="matrix" values="0 0 0 0 0 0 0 0 0 0 0 0 0 0 0 0 0 0 127 0" result="hardAlpha"/>
<feOffset dy="0.965159"/>
<feGaussianBlur stdDeviation="1.93032"/>
<feComposite in2="hardAlpha" operator="out"/>
<feColorMatrix type="matrix" values="0 0 0 0 0 0 0 0 0 0 0 0 0 0 0 0 0 0 0.15 0"/>
<feBlend mode="normal" in2="BackgroundImageFix" result="effect1_dropShadow_107_87"/>
<feBlend mode="normal" in="SourceGraphic" in2="effect1_dropShadow_107_87" result="shape"/>
</filter>
<filter id="filter1_di_107_87" x="7.84073" y="28.6694" width="3.82562" height="4.94068" filterUnits="userSpaceOnUse" color-interpolation-filters="sRGB">
<feFlood flood-opacity="0" result="BackgroundImageFix"/>
<feColorMatrix in="SourceAlpha" type="matrix" values="0 0 0 0 0 0 0 0 0 0 0 0 0 0 0 0 0 0 127 0" result="hardAlpha"/>
<feOffset dy="0.787515"/>
<feGaussianBlur stdDeviation="0.37407"/>
<feComposite in2="hardAlpha" operator="out"/>
<feColorMatrix type="matrix" values="0 0 0 0 0 0 0 0 0 0 0 0 0 0 0 0 0 0 0.13 0"/>
<feBlend mode="normal" in2="BackgroundImageFix" result="effect1_dropShadow_107_87"/>
<feBlend mode="normal" in="SourceGraphic" in2="effect1_dropShadow_107_87" result="shape"/>
<feColorMatrix in="SourceAlpha" type="matrix" values="0 0 0 0 0 0 0 0 0 0 0 0 0 0 0 0 0 0 127 0" result="hardAlpha"/>
<feOffset dy="0.354382"/>
<feGaussianBlur stdDeviation="0.0590636"/>
<feComposite in2="hardAlpha" operator="arithmetic" k2="-1" k3="1"/>
<feColorMatrix type="matrix" values="0 0 0 0 1 0 0 0 0 1 0 0 0 0 1 0 0 0 0.21 0"/>
<feBlend mode="normal" in2="shape" result="effect2_innerShadow_107_87"/>
</filter>
<filter id="filter2_di_107_87" x="21.6996" y="28.6694" width="3.82562" height="4.94068" filterUnits="userSpaceOnUse" color-interpolation-filters="sRGB">
<feFlood flood-opacity="0" result="BackgroundImageFix"/>
<feColorMatrix in="SourceAlpha" type="matrix" values="0 0 0 0 0 0 0 0 0 0 0 0 0 0 0 0 0 0 127 0" result="hardAlpha"/>
<feOffset dy="0.787515"/>
<feGaussianBlur stdDeviation="0.37407"/>
<feComposite in2="hardAlpha" operator="out"/>
<feColorMatrix type="matrix" values="0 0 0 0 0 0 0 0 0 0 0 0 0 0 0 0 0 0 0.13 0"/>
<feBlend mode="normal" in2="BackgroundImageFix" result="effect1_dropShadow_107_87"/>
<feBlend mode="normal" in="SourceGraphic" in2="effect1_dropShadow_107_87" result="shape"/>
<feColorMatrix in="SourceAlpha" type="matrix" values="0 0 0 0 0 0 0 0 0 0 0 0 0 0 0 0 0 0 127 0" result="hardAlpha"/>
<feOffset dy="0.354382"/>
<feGaussianBlur stdDeviation="0.0590636"/>
<feComposite in2="hardAlpha" operator="arithmetic" k2="-1" k3="1"/>
<feColorMatrix type="matrix" values="0 0 0 0 1 0 0 0 0 1 0 0 0 0 1 0 0 0 0.21 0"/>
<feBlend mode="normal" in2="shape" result="effect2_innerShadow_107_87"/>
</filter>
<filter id="filter3_di_107_87" x="14.7702" y="28.6694" width="3.82562" height="4.94068" filterUnits="userSpaceOnUse" color-interpolation-filters="sRGB">
<feFlood flood-opacity="0" result="BackgroundImageFix"/>
<feColorMatrix in="SourceAlpha" type="matrix" values="0 0 0 0 0 0 0 0 0 0 0 0 0 0 0 0 0 0 127 0" result="hardAlpha"/>
<feOffset dy="0.787515"/>
<feGaussianBlur stdDeviation="0.37407"/>
<feComposite in2="hardAlpha" operator="out"/>
<feColorMatrix type="matrix" values="0 0 0 0 0 0 0 0 0 0 0 0 0 0 0 0 0 0 0.13 0"/>
<feBlend mode="normal" in2="BackgroundImageFix" result="effect1_dropShadow_107_87"/>
<feBlend mode="normal" in="SourceGraphic" in2="effect1_dropShadow_107_87" result="shape"/>
<feColorMatrix in="SourceAlpha" type="matrix" values="0 0 0 0 0 0 0 0 0 0 0 0 0 0 0 0 0 0 127 0" result="hardAlpha"/>
<feOffset dy="0.354382"/>
<feGaussianBlur stdDeviation="0.0590636"/>
<feComposite in2="hardAlpha" operator="arithmetic" k2="-1" k3="1"/>
<feColorMatrix type="matrix" values="0 0 0 0 1 0 0 0 0 1 0 0 0 0 1 0 0 0 0.21 0"/>
<feBlend mode="normal" in2="shape" result="effect2_innerShadow_107_87"/>
</filter>
<filter id="filter4_di_107_87" x="28.6291" y="28.6694" width="3.82562" height="4.94068" filterUnits="userSpaceOnUse" color-interpolation-filters="sRGB">
<feFlood flood-opacity="0" result="BackgroundImageFix"/>
<feColorMatrix in="SourceAlpha" type="matrix" values="0 0 0 0 0 0 0 0 0 0 0 0 0 0 0 0 0 0 127 0" result="hardAlpha"/>
<feOffset dy="0.787515"/>
<feGaussianBlur stdDeviation="0.37407"/>
<feComposite in2="hardAlpha" operator="out"/>
<feColorMatrix type="matrix" values="0 0 0 0 0 0 0 0 0 0 0 0 0 0 0 0 0 0 0.13 0"/>
<feBlend mode="normal" in2="BackgroundImageFix" result="effect1_dropShadow_107_87"/>
<feBlend mode="normal" in="SourceGraphic" in2="effect1_dropShadow_107_87" result="shape"/>
<feColorMatrix in="SourceAlpha" type="matrix" values="0 0 0 0 0 0 0 0 0 0 0 0 0 0 0 0 0 0 127 0" result="hardAlpha"/>
<feOffset dy="0.354382"/>
<feGaussianBlur stdDeviation="0.0590636"/>
<feComposite in2="hardAlpha" operator="arithmetic" k2="-1" k3="1"/>
<feColorMatrix type="matrix" values="0 0 0 0 1 0 0 0 0 1 0 0 0 0 1 0 0 0 0.21 0"/>
<feBlend mode="normal" in2="shape" result="effect2_innerShadow_107_87"/>
</filter>
<linearGradient id="paint0_linear_107_87" x1="6.97174" y1="24.7007" x2="38.1664" y2="1.29058" gradientUnits="userSpaceOnUse">
<stop stop-color="white"/>
<stop offset="1" stop-color="white" stop-opacity="0.58"/>
</linearGradient>
</defs>
</svg>
