<svg width="40" height="40" viewBox="0 0 40 40" fill="none" xmlns="http://www.w3.org/2000/svg">
<g clip-path="url(#clip0_107_203)">
<g filter="url(#filter0_d_107_203)">
<path d="M34.9397 17.7734C34.9857 17.5129 35.0097 17.245 35.0097 16.9716C35.0097 14.4137 32.9094 12.3401 30.3185 12.3401C28.3924 12.3401 26.7374 13.4861 26.0149 15.1252C25.4296 14.6263 24.6701 14.325 23.8402 14.325C21.9895 14.325 20.4893 15.8226 20.4893 17.67C20.4893 17.7729 20.4939 17.8747 20.503 17.9752C19.6129 18.4056 19 19.3088 19 20.3534C19 21.815 20.2002 23 21.6807 23H34.3396C35.8201 23 37.0203 21.815 37.0203 20.3534C37.0203 19.0954 36.1313 18.0424 34.9397 17.7734Z" fill="url(#paint0_linear_107_203)" shape-rendering="crispEdges"/>
</g>
<g filter="url(#filter1_d_107_203)">
<path d="M34.9397 30.4333C34.9857 30.1729 35.0097 29.905 35.0097 29.6315C35.0097 27.0736 32.9094 25 30.3185 25C28.3924 25 26.7374 26.146 26.0149 27.7851C25.4296 27.2862 24.6701 26.9849 23.8402 26.9849C21.9895 26.9849 20.4893 28.4825 20.4893 30.3299C20.4893 30.4328 20.4939 30.5346 20.503 30.6351C19.6129 31.0655 19 31.9688 19 33.0133C19 34.475 20.2002 35.6599 21.6807 35.6599H34.3396C35.8201 35.6599 37.0203 34.475 37.0203 33.0133C37.0203 31.7553 36.1313 30.7023 34.9397 30.4333Z" fill="url(#paint1_linear_107_203)" shape-rendering="crispEdges"/>
</g>
<g filter="url(#filter2_d_107_203)">
<path d="M19.9218 7.42716C19.9678 7.16704 19.9917 6.89944 19.9917 6.62632C19.9917 4.07127 17.8938 2 15.3058 2C13.3818 2 11.7287 3.14472 11.007 4.78193C10.4224 4.28359 9.66376 3.98271 8.83471 3.98271C6.98616 3.98271 5.48761 5.47863 5.48761 7.32394C5.48761 7.4267 5.49226 7.52837 5.50135 7.62876C4.61223 8.05872 4.00001 8.96091 4.00001 10.0043C4.00001 11.4643 5.19885 12.6479 6.67769 12.6479H19.3223C20.8012 12.6479 22 11.4643 22 10.0043C22 8.74771 21.112 7.69591 19.9218 7.42716Z" fill="url(#paint2_linear_107_203)" shape-rendering="crispEdges"/>
</g>
<g filter="url(#filter3_d_107_203)">
<path d="M19.6066 29.0015C19.6575 28.7138 19.684 28.4179 19.684 28.1159C19.684 25.2905 17.364 23 14.5022 23C12.3746 23 10.5465 24.2659 9.7485 26.0763C9.10199 25.5253 8.26306 25.1925 7.34629 25.1925C5.30211 25.1925 3.64498 26.8468 3.64498 28.8873C3.64498 29.001 3.65011 29.1134 3.66017 29.2244C2.67696 29.6999 1.99995 30.6975 1.99995 31.8513C1.99995 33.4659 3.32566 34.7747 4.961 34.7747H18.9437C20.5791 34.7747 21.9048 33.4659 21.9048 31.8513C21.9048 30.4618 20.9228 29.2987 19.6066 29.0015Z" fill="url(#paint3_linear_107_203)" shape-rendering="crispEdges"/>
</g>
<g filter="url(#filter4_d_107_203)">
<path d="M28.6066 22.0015C28.6575 21.7138 28.684 21.4179 28.684 21.1159C28.684 18.2905 26.364 16 23.5022 16C21.3746 16 19.5465 17.2659 18.7485 19.0763C18.102 18.5253 17.2631 18.1925 16.3463 18.1925C14.3021 18.1925 12.645 19.8468 12.645 21.8873C12.645 22.001 12.6501 22.1134 12.6602 22.2244C11.677 22.6999 10.9999 23.6975 10.9999 24.8513C10.9999 26.4659 12.3257 27.7747 13.961 27.7747H27.9437C29.5791 27.7747 30.9048 26.4659 30.9048 24.8513C30.9048 23.4618 29.9228 22.2987 28.6066 22.0015Z" fill="url(#paint4_linear_107_203)" shape-rendering="crispEdges"/>
</g>
<g filter="url(#filter5_d_107_203)">
<path d="M20.6066 16.0015C20.6575 15.7138 20.684 15.4179 20.684 15.1159C20.684 12.2905 18.364 10 15.5022 10C13.3746 10 11.5465 11.2659 10.7485 13.0763C10.102 12.5253 9.26306 12.1925 8.34629 12.1925C6.30211 12.1925 4.64498 13.8468 4.64498 15.8873C4.64498 16.001 4.65011 16.1134 4.66017 16.2244C3.67696 16.6999 2.99995 17.6975 2.99995 18.8513C2.99995 20.4659 4.32566 21.7747 5.961 21.7747H19.9437C21.5791 21.7747 22.9048 20.4659 22.9048 18.8513C22.9048 17.4618 21.9228 16.2987 20.6066 16.0015Z" fill="url(#paint5_linear_107_203)" shape-rendering="crispEdges"/>
</g>
<g filter="url(#filter6_d_107_203)">
<path d="M33.6066 10.0015C33.6575 9.71384 33.684 9.41792 33.684 9.1159C33.684 6.29047 31.364 4 28.5022 4C26.3746 4 24.5465 5.26586 23.7485 7.07633C23.102 6.52525 22.2631 6.19253 21.3463 6.19253C19.3021 6.19253 17.645 7.84676 17.645 9.88735C17.645 10.001 17.6501 10.1134 17.6602 10.2244C16.677 10.6999 15.9999 11.6975 15.9999 12.8513C15.9999 14.4659 17.3257 15.7747 18.961 15.7747H32.9437C34.5791 15.7747 35.9048 14.4659 35.9048 12.8513C35.9048 11.4618 34.9228 10.2987 33.6066 10.0015Z" fill="url(#paint6_linear_107_203)" shape-rendering="crispEdges"/>
</g>
</g>
<defs>
<filter id="filter0_d_107_203" x="15" y="12.3401" width="26.0203" height="18.6599" filterUnits="userSpaceOnUse" color-interpolation-filters="sRGB">
<feFlood flood-opacity="0" result="BackgroundImageFix"/>
<feColorMatrix in="SourceAlpha" type="matrix" values="0 0 0 0 0 0 0 0 0 0 0 0 0 0 0 0 0 0 127 0" result="hardAlpha"/>
<feOffset dy="4"/>
<feGaussianBlur stdDeviation="2"/>
<feComposite in2="hardAlpha" operator="out"/>
<feColorMatrix type="matrix" values="0 0 0 0 0 0 0 0 0 0 0 0 0 0 0 0 0 0 0.04 0"/>
<feBlend mode="normal" in2="BackgroundImageFix" result="effect1_dropShadow_107_203"/>
<feBlend mode="normal" in="SourceGraphic" in2="effect1_dropShadow_107_203" result="shape"/>
</filter>
<filter id="filter1_d_107_203" x="15" y="25" width="26.0203" height="18.6599" filterUnits="userSpaceOnUse" color-interpolation-filters="sRGB">
<feFlood flood-opacity="0" result="BackgroundImageFix"/>
<feColorMatrix in="SourceAlpha" type="matrix" values="0 0 0 0 0 0 0 0 0 0 0 0 0 0 0 0 0 0 127 0" result="hardAlpha"/>
<feOffset dy="4"/>
<feGaussianBlur stdDeviation="2"/>
<feComposite in2="hardAlpha" operator="out"/>
<feColorMatrix type="matrix" values="0 0 0 0 0 0 0 0 0 0 0 0 0 0 0 0 0 0 0.04 0"/>
<feBlend mode="normal" in2="BackgroundImageFix" result="effect1_dropShadow_107_203"/>
<feBlend mode="normal" in="SourceGraphic" in2="effect1_dropShadow_107_203" result="shape"/>
</filter>
<filter id="filter2_d_107_203" x="0" y="2" width="26" height="18.6478" filterUnits="userSpaceOnUse" color-interpolation-filters="sRGB">
<feFlood flood-opacity="0" result="BackgroundImageFix"/>
<feColorMatrix in="SourceAlpha" type="matrix" values="0 0 0 0 0 0 0 0 0 0 0 0 0 0 0 0 0 0 127 0" result="hardAlpha"/>
<feOffset dy="4"/>
<feGaussianBlur stdDeviation="2"/>
<feComposite in2="hardAlpha" operator="out"/>
<feColorMatrix type="matrix" values="0 0 0 0 0 0 0 0 0 0 0 0 0 0 0 0 0 0 0.04 0"/>
<feBlend mode="normal" in2="BackgroundImageFix" result="effect1_dropShadow_107_203"/>
<feBlend mode="normal" in="SourceGraphic" in2="effect1_dropShadow_107_203" result="shape"/>
</filter>
<filter id="filter3_d_107_203" x="-2" y="23" width="27.9048" height="19.7747" filterUnits="userSpaceOnUse" color-interpolation-filters="sRGB">
<feFlood flood-opacity="0" result="BackgroundImageFix"/>
<feColorMatrix in="SourceAlpha" type="matrix" values="0 0 0 0 0 0 0 0 0 0 0 0 0 0 0 0 0 0 127 0" result="hardAlpha"/>
<feOffset dy="4"/>
<feGaussianBlur stdDeviation="2"/>
<feComposite in2="hardAlpha" operator="out"/>
<feColorMatrix type="matrix" values="0 0 0 0 0 0 0 0 0 0 0 0 0 0 0 0 0 0 0.04 0"/>
<feBlend mode="normal" in2="BackgroundImageFix" result="effect1_dropShadow_107_203"/>
<feBlend mode="normal" in="SourceGraphic" in2="effect1_dropShadow_107_203" result="shape"/>
</filter>
<filter id="filter4_d_107_203" x="7" y="16" width="27.9048" height="19.7747" filterUnits="userSpaceOnUse" color-interpolation-filters="sRGB">
<feFlood flood-opacity="0" result="BackgroundImageFix"/>
<feColorMatrix in="SourceAlpha" type="matrix" values="0 0 0 0 0 0 0 0 0 0 0 0 0 0 0 0 0 0 127 0" result="hardAlpha"/>
<feOffset dy="4"/>
<feGaussianBlur stdDeviation="2"/>
<feComposite in2="hardAlpha" operator="out"/>
<feColorMatrix type="matrix" values="0 0 0 0 0 0 0 0 0 0 0 0 0 0 0 0 0 0 0.04 0"/>
<feBlend mode="normal" in2="BackgroundImageFix" result="effect1_dropShadow_107_203"/>
<feBlend mode="normal" in="SourceGraphic" in2="effect1_dropShadow_107_203" result="shape"/>
</filter>
<filter id="filter5_d_107_203" x="-1" y="10" width="27.9048" height="19.7747" filterUnits="userSpaceOnUse" color-interpolation-filters="sRGB">
<feFlood flood-opacity="0" result="BackgroundImageFix"/>
<feColorMatrix in="SourceAlpha" type="matrix" values="0 0 0 0 0 0 0 0 0 0 0 0 0 0 0 0 0 0 127 0" result="hardAlpha"/>
<feOffset dy="4"/>
<feGaussianBlur stdDeviation="2"/>
<feComposite in2="hardAlpha" operator="out"/>
<feColorMatrix type="matrix" values="0 0 0 0 0 0 0 0 0 0 0 0 0 0 0 0 0 0 0.04 0"/>
<feBlend mode="normal" in2="BackgroundImageFix" result="effect1_dropShadow_107_203"/>
<feBlend mode="normal" in="SourceGraphic" in2="effect1_dropShadow_107_203" result="shape"/>
</filter>
<filter id="filter6_d_107_203" x="12" y="4" width="27.9048" height="19.7747" filterUnits="userSpaceOnUse" color-interpolation-filters="sRGB">
<feFlood flood-opacity="0" result="BackgroundImageFix"/>
<feColorMatrix in="SourceAlpha" type="matrix" values="0 0 0 0 0 0 0 0 0 0 0 0 0 0 0 0 0 0 127 0" result="hardAlpha"/>
<feOffset dy="4"/>
<feGaussianBlur stdDeviation="2"/>
<feComposite in2="hardAlpha" operator="out"/>
<feColorMatrix type="matrix" values="0 0 0 0 0 0 0 0 0 0 0 0 0 0 0 0 0 0 0.04 0"/>
<feBlend mode="normal" in2="BackgroundImageFix" result="effect1_dropShadow_107_203"/>
<feBlend mode="normal" in="SourceGraphic" in2="effect1_dropShadow_107_203" result="shape"/>
</filter>
<linearGradient id="paint0_linear_107_203" x1="20.1462" y1="22.0482" x2="38.2796" y2="8.43991" gradientUnits="userSpaceOnUse">
<stop stop-color="white"/>
<stop offset="1" stop-color="white" stop-opacity="0.58"/>
</linearGradient>
<linearGradient id="paint1_linear_107_203" x1="20.1462" y1="34.7081" x2="38.2796" y2="21.0998" gradientUnits="userSpaceOnUse">
<stop stop-color="white"/>
<stop offset="1" stop-color="white" stop-opacity="0.58"/>
</linearGradient>
<linearGradient id="paint2_linear_107_203" x1="5.14488" y1="11.6972" x2="23.2579" y2="-1.89579" gradientUnits="userSpaceOnUse">
<stop stop-color="white"/>
<stop offset="1" stop-color="white" stop-opacity="0.58"/>
</linearGradient>
<linearGradient id="paint3_linear_107_203" x1="3.26598" y1="33.7234" x2="23.2958" y2="18.6919" gradientUnits="userSpaceOnUse">
<stop stop-color="white"/>
<stop offset="1" stop-color="white" stop-opacity="0.58"/>
</linearGradient>
<linearGradient id="paint4_linear_107_203" x1="12.266" y1="26.7234" x2="32.2958" y2="11.6919" gradientUnits="userSpaceOnUse">
<stop stop-color="white"/>
<stop offset="1" stop-color="white" stop-opacity="0.58"/>
</linearGradient>
<linearGradient id="paint5_linear_107_203" x1="4.26598" y1="20.7234" x2="24.2958" y2="5.69194" gradientUnits="userSpaceOnUse">
<stop stop-color="white"/>
<stop offset="1" stop-color="white" stop-opacity="0.58"/>
</linearGradient>
<linearGradient id="paint6_linear_107_203" x1="17.266" y1="14.7234" x2="37.2958" y2="-0.308063" gradientUnits="userSpaceOnUse">
<stop stop-color="white"/>
<stop offset="1" stop-color="white" stop-opacity="0.58"/>
</linearGradient>
<clipPath id="clip0_107_203">
<rect width="40" height="40" fill="white"/>
</clipPath>
</defs>
</svg>
