<svg width="40" height="40" viewBox="0 0 40 40" fill="none" xmlns="http://www.w3.org/2000/svg">
<g clip-path="url(#clip0_107_17)">
<g filter="url(#filter0_d_107_17)">
<path d="M34.3119 13.6842C34.394 13.22 34.4367 12.7425 34.4367 12.2552C34.4367 7.69597 30.6931 4 26.0752 4C22.6421 4 19.6923 6.04264 18.4045 8.96406C17.3613 8.07482 16.0076 7.53793 14.5282 7.53793C11.2297 7.53793 8.55568 10.2072 8.55568 13.5C8.55568 13.6834 8.56397 13.8648 8.5802 14.0439C6.99366 14.8111 5.90121 16.421 5.90121 18.2828C5.90121 20.888 8.04042 23 10.6793 23H33.2422C35.8811 23 38.0203 20.888 38.0203 18.2828C38.0203 16.0406 36.4357 14.1637 34.3119 13.6842Z" fill="url(#paint0_linear_107_17)" shape-rendering="crispEdges"/>
</g>
<g filter="url(#filter1_d_107_17)">
<path d="M29.4208 25.7834C29.5 25.3354 29.5413 24.8746 29.5413 24.4042C29.5413 20.0038 25.9281 16.4366 21.4711 16.4366C18.1576 16.4366 15.3105 18.4081 14.0677 21.2278C13.0608 20.3695 11.7542 19.8513 10.3264 19.8513C7.1428 19.8513 4.56195 22.4276 4.56195 25.6057C4.56195 25.7826 4.56996 25.9577 4.58562 26.1306C3.05435 26.8711 1.99997 28.4249 1.99997 30.2218C1.99997 32.7363 4.06464 34.7747 6.61155 34.7747H28.3884C30.9353 34.7747 33 32.7363 33 30.2218C33 28.0577 31.4707 26.2463 29.4208 25.7834Z" fill="url(#paint1_linear_107_17)" shape-rendering="crispEdges"/>
</g>
</g>
<defs>
<filter id="filter0_d_107_17" x="1.90125" y="1" width="40.119" height="27" filterUnits="userSpaceOnUse" color-interpolation-filters="sRGB">
<feFlood flood-opacity="0" result="BackgroundImageFix"/>
<feColorMatrix in="SourceAlpha" type="matrix" values="0 0 0 0 0 0 0 0 0 0 0 0 0 0 0 0 0 0 127 0" result="hardAlpha"/>
<feOffset dy="1"/>
<feGaussianBlur stdDeviation="2"/>
<feComposite in2="hardAlpha" operator="out"/>
<feColorMatrix type="matrix" values="0 0 0 0 0 0 0 0 0 0 0 0 0 0 0 0 0 0 0.15 0"/>
<feBlend mode="normal" in2="BackgroundImageFix" result="effect1_dropShadow_107_17"/>
<feBlend mode="normal" in="SourceGraphic" in2="effect1_dropShadow_107_17" result="shape"/>
</filter>
<filter id="filter1_d_107_17" x="-2.42857" y="13.1152" width="39.8571" height="27.1952" filterUnits="userSpaceOnUse" color-interpolation-filters="sRGB">
<feFlood flood-opacity="0" result="BackgroundImageFix"/>
<feColorMatrix in="SourceAlpha" type="matrix" values="0 0 0 0 0 0 0 0 0 0 0 0 0 0 0 0 0 0 127 0" result="hardAlpha"/>
<feOffset dy="1.10714"/>
<feGaussianBlur stdDeviation="2.21429"/>
<feComposite in2="hardAlpha" operator="out"/>
<feColorMatrix type="matrix" values="0 0 0 0 0 0 0 0 0 0 0 0 0 0 0 0 0 0 0.15 0"/>
<feBlend mode="normal" in2="BackgroundImageFix" result="effect1_dropShadow_107_17"/>
<feBlend mode="normal" in="SourceGraphic" in2="effect1_dropShadow_107_17" result="shape"/>
</filter>
<linearGradient id="paint0_linear_107_17" x1="7.94412" y1="21.3036" x2="40.2648" y2="-2.95162" gradientUnits="userSpaceOnUse">
<stop stop-color="white"/>
<stop offset="1" stop-color="white" stop-opacity="0.58"/>
</linearGradient>
<linearGradient id="paint1_linear_107_17" x1="3.9717" y1="33.1374" x2="35.1664" y2="9.72722" gradientUnits="userSpaceOnUse">
<stop stop-color="white"/>
<stop offset="1" stop-color="white" stop-opacity="0.58"/>
</linearGradient>
<clipPath id="clip0_107_17">
<rect width="40" height="40" fill="white"/>
</clipPath>
</defs>
</svg>
