<svg width="40" height="40" viewBox="0 0 40 40" fill="none" xmlns="http://www.w3.org/2000/svg">
<g clip-path="url(#clip0_114_93)">
<g filter="url(#filter0_b_114_93)">
<g filter="url(#filter1_i_114_93)">
<path d="M34.1898 12.3532C34.2857 11.809 34.3356 11.2493 34.3356 10.6779C34.3356 5.33294 29.9623 1 24.5675 1C20.5569 1 17.1109 3.39467 15.6065 6.81958C14.3878 5.77709 12.8064 5.14767 11.0782 5.14767C7.22479 5.14767 4.10098 8.27702 4.10098 12.1373C4.10098 12.3522 4.11066 12.5649 4.12962 12.7749C2.2762 13.6744 0.999986 15.5617 0.999986 17.7443C0.999986 20.7986 3.49904 23.2745 6.58177 23.2745H32.9402C36.0229 23.2745 38.522 20.7986 38.522 17.7443C38.522 15.1157 36.6709 12.9154 34.1898 12.3532Z" fill="url(#paint0_linear_114_93)"/>
</g>
</g>
<g filter="url(#filter2_i_114_93)">
<path d="M23.0799 23.2861H17.1021L14.5031 30.275H19.1814L17.0155 38.9999L24.8993 27.5534H21.4339L23.0799 23.2861Z" fill="url(#paint1_linear_114_93)"/>
</g>
<g filter="url(#filter3_f_114_93)">
<rect x="4.34583" y="19.283" width="30.7107" height="5.97484" rx="2.98742" fill="#FFED8D"/>
</g>
<g filter="url(#filter4_i_114_93)">
<path d="M27.1879 35.9618C26.2599 36.3739 25.8976 36.7222 25.5657 37.584C25.3013 36.7488 24.9762 36.3762 23.9434 35.9618C25.0058 35.6157 25.2941 35.215 25.5657 34.3396C25.8993 35.1464 26.1054 35.5867 27.1879 35.9618Z" fill="url(#paint2_linear_114_93)"/>
</g>
<g filter="url(#filter5_i_114_93)">
<path d="M12.1312 26.8801C11.2032 27.2922 10.841 27.6405 10.509 28.5023C10.2446 27.6671 9.91952 27.2946 8.88681 26.8801C9.94915 26.534 10.2375 26.1333 10.509 25.2579C10.8427 26.0647 11.0488 26.5051 12.1312 26.8801Z" fill="url(#paint3_linear_114_93)"/>
</g>
</g>
<defs>
<filter id="filter0_b_114_93" x="-2.22641" y="-2.22641" width="43.9748" height="28.7274" filterUnits="userSpaceOnUse" color-interpolation-filters="sRGB">
<feFlood flood-opacity="0" result="BackgroundImageFix"/>
<feGaussianBlur in="BackgroundImageFix" stdDeviation="1.61321"/>
<feComposite in2="SourceAlpha" operator="in" result="effect1_backgroundBlur_114_93"/>
<feBlend mode="normal" in="SourceGraphic" in2="effect1_backgroundBlur_114_93" result="shape"/>
</filter>
<filter id="filter1_i_114_93" x="1" y="1" width="37.522" height="23.4695" filterUnits="userSpaceOnUse" color-interpolation-filters="sRGB">
<feFlood flood-opacity="0" result="BackgroundImageFix"/>
<feBlend mode="normal" in="SourceGraphic" in2="BackgroundImageFix" result="shape"/>
<feColorMatrix in="SourceAlpha" type="matrix" values="0 0 0 0 0 0 0 0 0 0 0 0 0 0 0 0 0 0 127 0" result="hardAlpha"/>
<feOffset dy="1.31446"/>
<feGaussianBlur stdDeviation="0.597484"/>
<feComposite in2="hardAlpha" operator="arithmetic" k2="-1" k3="1"/>
<feColorMatrix type="matrix" values="0 0 0 0 1 0 0 0 0 1 0 0 0 0 1 0 0 0 1 0"/>
<feBlend mode="normal" in2="shape" result="effect1_innerShadow_114_93"/>
</filter>
<filter id="filter2_i_114_93" x="14.2641" y="23.2861" width="10.6352" height="15.7139" filterUnits="userSpaceOnUse" color-interpolation-filters="sRGB">
<feFlood flood-opacity="0" result="BackgroundImageFix"/>
<feBlend mode="normal" in="SourceGraphic" in2="BackgroundImageFix" result="shape"/>
<feColorMatrix in="SourceAlpha" type="matrix" values="0 0 0 0 0 0 0 0 0 0 0 0 0 0 0 0 0 0 127 0" result="hardAlpha"/>
<feOffset dx="-0.238994"/>
<feGaussianBlur stdDeviation="0.537736"/>
<feComposite in2="hardAlpha" operator="arithmetic" k2="-1" k3="1"/>
<feColorMatrix type="matrix" values="0 0 0 0 1 0 0 0 0 1 0 0 0 0 1 0 0 0 0.5 0"/>
<feBlend mode="normal" in2="shape" result="effect1_innerShadow_114_93"/>
</filter>
<filter id="filter3_f_114_93" x="-4.85543" y="10.0817" width="49.1132" height="24.3774" filterUnits="userSpaceOnUse" color-interpolation-filters="sRGB">
<feFlood flood-opacity="0" result="BackgroundImageFix"/>
<feBlend mode="normal" in="SourceGraphic" in2="BackgroundImageFix" result="shape"/>
<feGaussianBlur stdDeviation="4.60063" result="effect1_foregroundBlur_114_93"/>
</filter>
<filter id="filter4_i_114_93" x="23.9435" y="34.3396" width="3.24438" height="3.72237" filterUnits="userSpaceOnUse" color-interpolation-filters="sRGB">
<feFlood flood-opacity="0" result="BackgroundImageFix"/>
<feBlend mode="normal" in="SourceGraphic" in2="BackgroundImageFix" result="shape"/>
<feColorMatrix in="SourceAlpha" type="matrix" values="0 0 0 0 0 0 0 0 0 0 0 0 0 0 0 0 0 0 127 0" result="hardAlpha"/>
<feOffset dy="0.477987"/>
<feGaussianBlur stdDeviation="0.238994"/>
<feComposite in2="hardAlpha" operator="arithmetic" k2="-1" k3="1"/>
<feColorMatrix type="matrix" values="0 0 0 0 1 0 0 0 0 1 0 0 0 0 1 0 0 0 0.44 0"/>
<feBlend mode="normal" in2="shape" result="effect1_innerShadow_114_93"/>
</filter>
<filter id="filter5_i_114_93" x="8.88684" y="25.2579" width="3.24438" height="3.72237" filterUnits="userSpaceOnUse" color-interpolation-filters="sRGB">
<feFlood flood-opacity="0" result="BackgroundImageFix"/>
<feBlend mode="normal" in="SourceGraphic" in2="BackgroundImageFix" result="shape"/>
<feColorMatrix in="SourceAlpha" type="matrix" values="0 0 0 0 0 0 0 0 0 0 0 0 0 0 0 0 0 0 127 0" result="hardAlpha"/>
<feOffset dy="0.477987"/>
<feGaussianBlur stdDeviation="0.238994"/>
<feComposite in2="hardAlpha" operator="arithmetic" k2="-1" k3="1"/>
<feColorMatrix type="matrix" values="0 0 0 0 1 0 0 0 0 1 0 0 0 0 1 0 0 0 0.44 0"/>
<feBlend mode="normal" in2="shape" result="effect1_innerShadow_114_93"/>
</filter>
<linearGradient id="paint0_linear_114_93" x1="3.38654" y1="21.2857" x2="41.24" y2="-7.02149" gradientUnits="userSpaceOnUse">
<stop stop-color="white"/>
<stop offset="1" stop-color="white" stop-opacity="0.58"/>
</linearGradient>
<linearGradient id="paint1_linear_114_93" x1="18.4162" y1="37.4863" x2="28.5578" y2="23.4867" gradientUnits="userSpaceOnUse">
<stop stop-color="#FF9900"/>
<stop offset="1" stop-color="#FFEE94"/>
</linearGradient>
<linearGradient id="paint2_linear_114_93" x1="25.0964" y1="37.736" x2="26.6232" y2="34.8693" gradientUnits="userSpaceOnUse">
<stop stop-color="#FF9900"/>
<stop offset="1" stop-color="#FFEE94"/>
</linearGradient>
<linearGradient id="paint3_linear_114_93" x1="10.0397" y1="28.6543" x2="11.5666" y2="25.7876" gradientUnits="userSpaceOnUse">
<stop stop-color="#FF9900"/>
<stop offset="1" stop-color="#FFEE94"/>
</linearGradient>
<clipPath id="clip0_114_93">
<rect width="40" height="40" fill="white"/>
</clipPath>
</defs>
</svg>
